<svg version="1.1" xmlns="http://www.w3.org/2000/svg" xmlns:xlink="http://www.w3.org/1999/xlink" viewBox="0 0 172 172">
    <g fill="none" stroke="none" stroke-width="1" stroke-linecap="butt" stroke-linejoin="miter"
       stroke-miterlimit="10" stroke-dasharray="" stroke-dashoffset="0" font-family="none" font-size="none"
       style="mix-blend-mode: normal">
        <path d="M0,172v-172h172v172z" fill="none"></path>
        <path d="M86,172c-47.49649,0 -86,-38.50351 -86,-86v0c0,-47.49649 38.50351,-86 86,-86v0c47.49649,0 86,38.50351 86,86v0c0,47.49649 -38.50351,86 -86,86z"
              fill="#cccccc"></path>
        <g>
            <path d="M41.65625,48.24062h76.325v15.05h-76.325z" fill="#d3d3d1"></path>
            <path d="M120.13125,66.51563h-81.7c-1.8275,0 -3.225,-1.3975 -3.225,-3.225v-15.05c0,-1.8275 1.3975,-3.225 3.225,-3.225h81.7c1.8275,0 3.225,1.3975 3.225,3.225v15.05c0,1.8275 -1.3975,3.225 -3.225,3.225zM41.65625,60.06562h75.25v-8.6h-75.25z"
                  fill="#454b54"></path>
            <path d="M100.78125,118.11563h-43c-5.9125,0 -10.75,-4.8375 -10.75,-10.75v-64.5h64.5v64.5c0,5.9125 -4.8375,10.75 -10.75,10.75"
                  fill="#eaeaea"></path>
            <path d="M100.78125,118.11563h-43c-5.9125,0 -10.75,-4.8375 -10.75,-10.75h64.5c0,5.9125 -4.8375,10.75 -10.75,10.75"
                  fill="#b2b3b3"></path>
            <path d="M111.53125,42.86562h-64.5v33.325c3.1175,2.0425 6.7725,3.225 10.75,3.225h43v27.95v0h10.75v0v-64.5"
                  fill="#bebebf"></path>
            <path d="M111.53125,107.36563h-10.75c0,5.9125 -4.8375,10.75 -10.75,10.75h10.75c5.9125,0 10.75,-4.8375 10.75,-10.75"
                  fill="#919293"></path>
            <path d="M100.78125,70.81562h-43c-5.9125,0 -10.75,-4.8375 -10.75,-10.75v-17.2h64.5v17.2c0,5.9125 -4.8375,10.75 -10.75,10.75z"
                  fill="#baa0b5"></path>
            <path d="M87.88125,46.09062c-1.8275,0 -3.225,-1.3975 -3.225,-3.225v-6.45c0,-3.01 -2.365,-5.375 -5.375,-5.375c-3.01,0 -5.375,2.365 -5.375,5.375v6.45c0,1.8275 -1.3975,3.225 -3.225,3.225c-1.8275,0 -3.225,-1.3975 -3.225,-3.225v-6.45c0,-6.5575 5.2675,-11.825 11.825,-11.825c6.5575,0 11.825,5.2675 11.825,11.825v6.45c0,1.8275 -1.3975,3.225 -3.225,3.225zM100.78125,74.04062h-43c-7.74,0 -13.975,-6.235 -13.975,-13.975c0,-1.8275 1.3975,-3.225 3.225,-3.225c1.8275,0 3.225,1.3975 3.225,3.225c0,4.1925 3.3325,7.525 7.525,7.525h43c4.1925,0 7.525,-3.3325 7.525,-7.525c0,-1.8275 1.3975,-3.225 3.225,-3.225c1.8275,0 3.225,1.3975 3.225,3.225c0,7.74 -6.235,13.975 -13.975,13.975z"
                  fill="#454b54"></path>
            <path d="M47.03125,107.36563v0c-5.375,0 -9.675,-4.3 -9.675,-9.675v-12.9c0,-5.375 4.3,-9.675 9.675,-9.675v0z"
                  fill="#d3d3d1"></path>
            <path d="M47.03125,110.59063c-7.095,0 -12.9,-5.805 -12.9,-12.9v-12.9c0,-7.095 5.805,-12.9 12.9,-12.9c1.8275,0 3.225,1.3975 3.225,3.225v32.25c0,1.8275 -1.3975,3.225 -3.225,3.225zM43.80625,79.20063c-1.935,1.075 -3.225,3.225 -3.225,5.59v12.9c0,2.365 1.29,4.515 3.225,5.59z"
                  fill="#454b54"></path>
            <path d="M111.53125,107.36563v0v-32.25v0c5.375,0 9.675,4.3 9.675,9.675v12.9c0,5.375 -4.3,9.675 -9.675,9.675z"
                  fill="#d3d3d1"></path>
            <path d="M111.53125,110.59063c-1.8275,0 -3.225,-1.3975 -3.225,-3.225v-32.25c0,-1.8275 1.3975,-3.225 3.225,-3.225c7.095,0 12.9,5.805 12.9,12.9v12.9c0,7.095 -5.805,12.9 -12.9,12.9zM114.75625,79.20063v24.08c1.935,-1.075 3.225,-3.225 3.225,-5.59v-12.9c0,-2.365 -1.29,-4.515 -3.225,-5.59z"
                  fill="#454b54"></path>
            <path d="M111.53125,139.61563h-64.5c-3.01,0 -5.375,-2.365 -5.375,-5.375v-10.75c0,-3.01 2.365,-5.375 5.375,-5.375h64.5c3.01,0 5.375,2.365 5.375,5.375v10.75c0,3.01 -2.365,5.375 -5.375,5.375"
                  fill="#acd168"></path>
            <path d="M116.90625,126.71563c0,3.01 -2.365,5.375 -5.375,5.375h-64.5c-3.01,0 -5.375,-2.365 -5.375,-5.375v7.525c0,3.01 2.365,5.375 5.375,5.375h64.5c3.01,0 5.375,-2.365 5.375,-5.375v-7.525"
                  fill="#8caa57"></path>
            <path d="M111.53125,142.84062h-64.5c-4.73,0 -8.6,-3.87 -8.6,-8.6v-10.75c0,-4.73 3.87,-8.6 8.6,-8.6h64.5c4.73,0 8.6,3.87 8.6,8.6v10.75c0,4.73 -3.87,8.6 -8.6,8.6zM47.03125,121.34063c-1.1825,0 -2.15,0.9675 -2.15,2.15v10.75c0,1.1825 0.9675,2.15 2.15,2.15h64.5c1.1825,0 2.15,-0.9675 2.15,-2.15v-10.75c0,-1.1825 -0.9675,-2.15 -2.15,-2.15zM95.40625,110.59063h-32.25c-1.8275,0 -3.225,-1.3975 -3.225,-3.225c0,-1.8275 1.3975,-3.225 3.225,-3.225h32.25c1.8275,0 3.225,1.3975 3.225,3.225c0,1.8275 -1.3975,3.225 -3.225,3.225z"
                  fill="#454b54"></path>
            <path d="M100.78125,121.34063h-43c-7.74,0 -13.975,-6.235 -13.975,-13.975v-64.5c0,-1.8275 1.3975,-3.225 3.225,-3.225h64.5c1.8275,0 3.225,1.3975 3.225,3.225v64.5c0,7.74 -6.235,13.975 -13.975,13.975zM50.25625,46.09062v61.275c0,4.1925 3.3325,7.525 7.525,7.525h43c4.1925,0 7.525,-3.3325 7.525,-7.525v-61.275z"
                  fill="#454b54"></path>
            <path d="M63.15625,83.71563c-1.8275,0 -3.225,-1.3975 -3.225,-3.225v-16.125c0,-1.8275 1.3975,-3.225 3.225,-3.225c1.8275,0 3.225,1.3975 3.225,3.225v16.125c0,1.8275 -1.3975,3.225 -3.225,3.225zM95.40625,83.71563c-1.8275,0 -3.225,-1.3975 -3.225,-3.225v-16.125c0,-1.8275 1.3975,-3.225 3.225,-3.225c1.8275,0 3.225,1.3975 3.225,3.225v16.125c0,1.8275 -1.3975,3.225 -3.225,3.225zM63.15625,146.06563c-1.8275,0 -3.225,-1.3975 -3.225,-3.225v-24.725c0,-1.8275 1.3975,-3.225 3.225,-3.225c1.8275,0 3.225,1.3975 3.225,3.225v24.725c0,1.8275 -1.3975,3.225 -3.225,3.225zM95.40625,146.06563c-1.8275,0 -3.225,-1.3975 -3.225,-3.225v-24.725c0,-1.8275 1.3975,-3.225 3.225,-3.225c1.8275,0 3.225,1.3975 3.225,3.225v24.725c0,1.8275 -1.3975,3.225 -3.225,3.225z"
                  fill="#454b54"></path>
        </g>
    </g>
</svg>
